<svg width="128" height="128" viewBox="0 0 128 128" fill="none" xmlns="http://www.w3.org/2000/svg">
<path d="M63.4647 0.214233C28.4144 0.214233 0.000244141 28.7908 0.000244141 64.0415C0.000244141 99.2922 28.4144 127.869 63.4647 127.869C98.5151 127.869 126.93 99.2922 126.93 64.0415C126.93 28.7908 98.5151 0.214233 63.4647 0.214233" fill="white"/>
<path d="M56.5335 31.7663C57.4065 33.0373 58.9154 35.891 61.1485 42.2644C62.6762 46.6249 64.3432 52.0265 66.1065 58.3291C59.4169 58.2326 52.6479 58.1601 46.094 58.0909L42.7749 58.0554C46.5244 44.2956 51.0986 33.8549 54.4417 31.3896C54.6554 31.2609 54.9868 31.1089 55.3499 31.1089C55.7889 31.1089 56.185 31.335 56.5335 31.7663Z" fill="#10069F"/>
<path fill-rule="evenodd" clip-rule="evenodd" d="M0.000244141 64.0415C0.000244141 28.7908 28.4144 0.214233 63.4647 0.214233C98.5151 0.214233 126.93 28.7908 126.93 64.0415C126.93 99.2922 98.5151 127.869 63.4647 127.869C28.4144 127.869 0.000244141 99.2922 0.000244141 64.0415ZM109.093 65.2062C109.095 65.2044 109.097 65.2027 109.099 65.2009C109.856 64.577 110.34 63.6313 110.34 62.5817C110.34 60.9427 109.191 59.5769 107.644 59.2653L107.616 59.2591C107.608 59.2575 107.6 59.2555 107.591 59.2535C107.582 59.2512 107.572 59.2488 107.562 59.2472L107.5 59.2413C107.336 59.214 107.169 59.1969 106.998 59.1943L106.552 59.1526C95.9232 58.387 84.9877 58.0862 74.7287 57.8798L74.7088 57.8048C69.7159 38.9683 63.4784 19.7118 55.0691 19.7118C47.233 19.7476 40.1686 32.4004 34.0684 57.3256C29.758 57.2704 25.8294 57.2112 22.1249 57.1468C21.9151 57.1431 21.7262 57.1418 21.5572 57.1418C20.7679 57.1418 20.3819 57.175 20.19 57.1997C18.1041 57.5718 16.5902 59.403 16.5902 61.5544C16.5902 63.7486 18.2191 65.6298 20.3404 65.9372L20.3835 65.9819H32.0695C30.9853 70.9691 30.0345 75.9014 29.241 80.6526L28.8932 82.7439L28.8896 82.8441C28.8968 84.4571 30.2081 85.7696 31.8119 85.7696C32.8287 85.7696 33.7501 85.2371 34.2753 84.4058L34.3596 84.4726L40.1039 65.9819H67.7761C69.8905 74.0159 72.0829 82.3109 74.981 90.0958L74.9813 90.0965C76.531 94.2604 80.1592 104.009 86.2231 104.057L86.2915 104.058C95.6764 104.058 99.3345 88.8112 101.756 78.7194L101.76 78.7018C102.279 76.5381 102.728 74.6693 103.151 73.2954L103.32 72.727L103.319 72.7267C103.359 72.5932 103.381 72.4519 103.381 72.3053C103.381 71.4973 102.73 70.8425 101.927 70.8425C101.304 70.8425 100.774 71.2367 100.567 71.7899L100.563 71.7886L100.36 72.3543C99.5633 74.5724 98.8266 76.6693 98.1738 78.5271L98.1248 78.6672L98.1233 78.6716C94.0617 90.2382 92.2078 95.5176 88.5764 95.5179L88.4875 95.5176L88.4369 95.5248L88.346 95.5225C83.6968 95.5225 79.3208 76.5199 77.6728 69.3633L77.6723 69.361C77.3869 68.1218 77.1245 66.9838 76.8839 65.9819H106.946C107.51 65.9819 108.041 65.8409 108.509 65.5943C108.51 65.5937 108.511 65.5931 108.513 65.5925C108.514 65.5919 108.515 65.5914 108.517 65.5907C108.561 65.5669 108.604 65.5413 108.647 65.5157L108.655 65.5108C108.705 65.4816 108.755 65.4517 108.804 65.4201C108.821 65.4086 108.838 65.3969 108.854 65.3852L108.874 65.3711C108.947 65.3208 109.017 65.2682 109.085 65.2127C109.088 65.2104 109.09 65.2083 109.093 65.2062Z" fill="#10069F"/>
</svg>
