<svg width="24" height="24" viewBox="0 0 24 24" fill="none" xmlns="http://www.w3.org/2000/svg">
<path fill-rule="evenodd" clip-rule="evenodd" d="M0 12.0078C0 5.39828 5.32765 0.0401764 11.8996 0.0401764C18.4715 0.0401764 23.7992 5.39828 23.7992 12.0078C23.7992 18.6173 18.4715 23.9754 11.8996 23.9754C5.32765 23.9754 0 18.6173 0 12.0078ZM20.4534 12.2274L20.4561 12.2252C20.598 12.1082 20.6886 11.9309 20.6886 11.7341C20.6886 11.4268 20.4733 11.1707 20.1832 11.1123L20.178 11.1111C20.1746 11.1105 20.1713 11.1094 20.1678 11.1089L20.1562 11.1078C20.1254 11.1026 20.0942 11.0994 20.0621 11.0989L19.9785 11.0911C17.9856 10.9476 15.9351 10.8912 14.0116 10.8525L14.0079 10.8384C13.0717 7.30657 11.9022 3.69596 10.3254 3.69596C8.85615 3.70268 7.53157 6.07508 6.38778 10.7486C5.57958 10.7382 4.84296 10.7271 4.14838 10.715C4.10903 10.7143 4.07361 10.7141 4.04193 10.7141C3.89393 10.7141 3.82155 10.7203 3.78558 10.7249C3.39447 10.7947 3.11061 11.1381 3.11061 11.5415C3.11061 11.9529 3.41604 12.3056 3.81377 12.3632L3.82186 12.3716H6.01298C5.8097 13.3067 5.63143 14.2315 5.48263 15.1224L5.41743 15.5145L5.41675 15.5333C5.4181 15.8357 5.66397 16.0818 5.96469 16.0818C6.15534 16.0818 6.32809 15.982 6.42658 15.8261L6.44239 15.8386L7.51944 12.3716H12.708C13.1044 13.878 13.5155 15.4333 14.0589 16.893L14.0589 16.8931C14.3495 17.6738 15.0298 19.5017 16.1668 19.5107L16.1796 19.5108C17.9393 19.5108 18.6252 16.6521 19.0792 14.7599L19.08 14.7565C19.1773 14.3509 19.2614 14.0005 19.3407 13.7429L19.3724 13.6363L19.3723 13.6363C19.3798 13.6112 19.3839 13.5847 19.3839 13.5573C19.3839 13.4058 19.2618 13.283 19.1112 13.283C18.9944 13.283 18.8951 13.3569 18.8562 13.4606L18.8555 13.4604L18.8175 13.5664C18.6681 13.9823 18.5299 14.3755 18.4076 14.7238L18.3984 14.7501L18.3981 14.751C17.6365 16.9197 17.2889 17.9096 16.608 17.9096L16.5914 17.9096L16.5819 17.9109L16.5648 17.9105C15.6931 17.9105 14.8726 14.3475 14.5636 13.0056L14.5635 13.0052C14.51 12.7728 14.4608 12.5595 14.4157 12.3716H20.0523C20.1581 12.3716 20.2577 12.3452 20.3453 12.2989L20.3469 12.2983C20.3504 12.2964 20.3539 12.2944 20.3574 12.2924C20.3625 12.2894 20.3677 12.2863 20.3728 12.2833C20.3822 12.2778 20.3916 12.2722 20.4007 12.2663L20.4139 12.2571C20.4274 12.2477 20.4406 12.2378 20.4534 12.2274Z" fill="#007FD2"/>
</svg>
